<svg xmlns="http://www.w3.org/2000/svg" viewBox="0 0 64 64" fill="none">
  <rect width="64" height="64" rx="14" fill="#FFF8F0"/>
  <path
    d="M32 52C32 52 12 38.5 12 24.2 12 16.8 17.5 12 24 12c4.1 0 7.3 2.1 9.3 5.1C35.3 14.1 38.5 12 42.6 12 49.1 12 54.6 16.8 54.6 24.2 54.6 38.5 32 52 32 52Z"
    fill="none"
    stroke="#D4A373"
    stroke-width="3"
    stroke-linejoin="round"
  />
  <rect x="22.5" y="27" width="3" height="9" rx="1.5" fill="#D4A373"/>
  <rect x="28.5" y="21.5" width="3" height="20" rx="1.5" fill="#D4A373"/>
  <rect x="34.5" y="24" width="3" height="15" rx="1.5" fill="#D4A373"/>
  <rect x="40.5" y="28" width="3" height="7" rx="1.5" fill="#D4A373"/>
</svg>
